# Blender v2.79 (sub 0) OBJ File: ''
# www.blender.org
mtllib base_1.mtl
o Cube.010
v 69.000000 17.000000 -31.000000
v 69.000000 20.000000 -31.000000
v 159.000000 17.000000 -30.999996
v 159.000000 20.000000 -30.999996
v 69.000000 17.000000 29.000000
v 69.000000 20.000000 29.000000
v 159.000000 17.000000 29.000004
v 159.000000 20.000000 29.000004
vn 0.0000 0.0000 -1.0000
vn 1.0000 0.0000 0.0000
vn -0.0000 0.0000 1.0000
vn -1.0000 0.0000 0.0000
vn 0.0000 -1.0000 0.0000
vn 0.0000 1.0000 0.0000
usemtl None
s off
f 1//1 2//1 4//1 3//1
f 3//2 4//2 8//2 7//2
f 7//3 8//3 6//3 5//3
f 5//4 6//4 2//4 1//4
f 3//5 7//5 5//5 1//5
f 8//6 4//6 2//6 6//6
o Cube.009
v -30.000000 17.000000 -70.000000
v -30.000000 20.000000 -70.000000
v -30.000000 17.000000 -160.000000
v -30.000000 20.000000 -160.000000
v 30.000000 17.000000 -70.000000
v 30.000000 20.000000 -70.000000
v 30.000000 17.000000 -160.000000
v 30.000000 20.000000 -160.000000
vn -1.0000 0.0000 0.0000
vn 0.0000 0.0000 -1.0000
vn 1.0000 0.0000 0.0000
vn 0.0000 0.0000 1.0000
vn 0.0000 -1.0000 0.0000
vn 0.0000 1.0000 0.0000
usemtl None
s off
f 9//7 10//7 12//7 11//7
f 11//8 12//8 16//8 15//8
f 15//9 16//9 14//9 13//9
f 13//10 14//10 10//10 9//10
f 11//11 15//11 13//11 9//11
f 16//12 12//12 10//12 14//12
o Cube.008
v -52.000000 35.000000 30.000000
v -52.000000 40.000000 30.000000
v -57.000000 35.000000 30.000000
v -57.000000 40.000000 30.000000
v -52.000000 35.000000 6.000000
v -52.000000 40.000000 6.000000
v -57.000000 35.000000 6.000000
v -57.000000 40.000000 6.000000
vn 0.0000 0.0000 1.0000
vn -1.0000 0.0000 0.0000
vn 0.0000 0.0000 -1.0000
vn 1.0000 0.0000 0.0000
vn 0.0000 -1.0000 0.0000
vn 0.0000 1.0000 0.0000
usemtl None
s off
f 17//13 18//13 20//13 19//13
f 19//14 20//14 24//14 23//14
f 23//15 24//15 22//15 21//15
f 21//16 22//16 18//16 17//16
f 19//17 23//17 21//17 17//17
f 24//18 20//18 18//18 22//18
o Cube.007
v -53.000000 40.000000 29.000000
v -53.000000 49.000000 29.000000
v -56.000000 40.000000 29.000000
v -56.000000 49.000000 29.000000
v -53.000000 40.000000 13.000000
v -53.000000 49.000000 13.000000
v -56.000000 40.000000 13.000001
v -56.000000 49.000000 13.000001
vn 0.0000 0.0000 1.0000
vn -1.0000 0.0000 0.0000
vn -0.0000 0.0000 -1.0000
vn 1.0000 0.0000 0.0000
vn 0.0000 -1.0000 0.0000
vn 0.0000 1.0000 0.0000
usemtl None
s off
f 25//19 26//19 28//19 27//19
f 27//20 28//20 32//20 31//20
f 31//21 32//21 30//21 29//21
f 29//22 30//22 26//22 25//22
f 27//23 31//23 29//23 25//23
f 32//24 28//24 26//24 30//24
o Cube.006
v -29.000000 40.000000 56.000000
v -29.000000 49.000000 56.000000
v -29.000000 40.000000 53.000000
v -29.000000 49.000000 53.000000
v -13.000001 40.000000 56.000000
v -13.000001 49.000000 56.000000
v -13.000001 40.000000 53.000000
v -13.000001 49.000000 53.000000
vn -1.0000 0.0000 0.0000
vn 0.0000 0.0000 -1.0000
vn 1.0000 0.0000 0.0000
vn 0.0000 0.0000 1.0000
vn 0.0000 -1.0000 0.0000
vn 0.0000 1.0000 0.0000
usemtl None
s off
f 33//25 34//25 36//25 35//25
f 35//26 36//26 40//26 39//26
f 39//27 40//27 38//27 37//27
f 37//28 38//28 34//28 33//28
f 35//29 39//29 37//29 33//29
f 40//30 36//30 34//30 38//30
o Cube.005
v -30.000000 35.000000 57.000000
v -30.000000 40.000000 57.000000
v -30.000000 35.000000 52.000000
v -30.000000 40.000000 52.000000
v -6.000000 35.000000 57.000000
v -6.000000 40.000000 57.000000
v -6.000000 35.000000 52.000000
v -6.000000 40.000000 52.000000
vn -1.0000 0.0000 0.0000
vn 0.0000 0.0000 -1.0000
vn 1.0000 0.0000 0.0000
vn 0.0000 0.0000 1.0000
vn 0.0000 -1.0000 0.0000
vn 0.0000 1.0000 0.0000
usemtl None
s off
f 41//31 42//31 44//31 43//31
f 43//32 44//32 48//32 47//32
f 47//33 48//33 46//33 45//33
f 45//34 46//34 42//34 41//34
f 43//35 47//35 45//35 41//35
f 48//36 44//36 42//36 46//36
o Cube.004
v -60.000000 48.000000 60.000000
v -60.000000 50.000000 60.000000
v -60.000000 48.000000 -16.800001
v -60.000000 50.000000 -16.800001
v 16.800001 48.000000 60.000000
v 16.800001 50.000000 60.000000
v 16.800001 48.000000 -16.800001
v 16.800001 50.000000 -16.800001
vn -1.0000 0.0000 0.0000
vn 0.0000 0.0000 -1.0000
vn 1.0000 0.0000 0.0000
vn 0.0000 0.0000 1.0000
vn 0.0000 -1.0000 0.0000
vn 0.0000 1.0000 0.0000
usemtl None
s off
f 49//37 50//37 52//37 51//37
f 51//38 52//38 56//38 55//38
f 55//39 56//39 54//39 53//39
f 53//40 54//40 50//40 49//40
f 51//41 55//41 53//41 49//41
f 56//42 52//42 50//42 54//42
o Cube.003
v -60.000004 33.000000 60.000004
v -60.000004 35.000000 60.000004
v -60.000004 33.000000 -44.000004
v -60.000004 35.000000 -44.000004
v 44.000004 33.000000 60.000004
v 44.000004 35.000000 60.000004
v 44.000004 33.000000 -44.000004
v 44.000004 35.000000 -44.000004
vn -1.0000 0.0000 0.0000
vn 0.0000 0.0000 -1.0000
vn 1.0000 0.0000 0.0000
vn 0.0000 0.0000 1.0000
vn 0.0000 -1.0000 0.0000
vn 0.0000 1.0000 0.0000
usemtl None
s off
f 57//43 58//43 60//43 59//43
f 59//44 60//44 64//44 63//44
f 63//45 64//45 62//45 61//45
f 61//46 62//46 58//46 57//46
f 59//47 63//47 61//47 57//47
f 64//48 60//48 58//48 62//48
o Cube.002
v -10.000000 20.000000 10.000000
v -10.000000 34.000000 10.000000
v -10.000000 20.000000 -10.000000
v -10.000000 34.000000 -10.000000
v 10.000000 20.000000 10.000000
v 10.000000 34.000000 10.000000
v 10.000000 20.000000 -10.000000
v 10.000000 34.000000 -10.000000
vn -1.0000 0.0000 0.0000
vn 0.0000 0.0000 -1.0000
vn 1.0000 0.0000 0.0000
vn 0.0000 0.0000 1.0000
vn 0.0000 -1.0000 0.0000
vn 0.0000 1.0000 0.0000
usemtl None
s off
f 65//49 66//49 68//49 67//49
f 67//50 68//50 72//50 71//50
f 71//51 72//51 70//51 69//51
f 69//52 70//52 66//52 65//52
f 67//53 71//53 69//53 65//53
f 72//54 68//54 66//54 70//54
o Cylinder
v -40.000000 20.000000 30.000000
v -40.000000 49.000000 30.000000
v -36.173164 20.000000 30.761204
v -36.173164 49.000000 30.761204
v -32.928932 20.000000 32.928932
v -32.928932 49.000000 32.928932
v -30.761204 20.000000 36.173164
v -30.761204 49.000000 36.173164
v -30.000000 20.000000 40.000000
v -30.000000 49.000000 40.000000
v -30.761204 20.000000 43.826836
v -30.761204 49.000000 43.826836
v -32.928932 20.000000 47.071068
v -32.928932 49.000000 47.071068
v -36.173164 20.000000 49.238796
v -36.173164 49.000000 49.238796
v -40.000000 20.000000 50.000000
v -40.000000 49.000000 50.000000
v -43.826832 20.000000 49.238796
v -43.826832 49.000000 49.238796
v -47.071068 20.000000 47.071072
v -47.071068 49.000000 47.071072
v -49.238796 20.000000 43.826836
v -49.238796 49.000000 43.826836
v -50.000000 20.000000 40.000000
v -50.000000 49.000000 40.000000
v -49.238792 20.000000 36.173164
v -49.238792 49.000000 36.173164
v -47.071064 20.000000 32.928928
v -47.071064 49.000000 32.928928
v -43.826828 20.000000 30.761204
v -43.826828 49.000000 30.761204
vn 0.1951 0.0000 -0.9808
vn 0.5556 0.0000 -0.8315
vn 0.8315 0.0000 -0.5556
vn 0.9808 0.0000 -0.1951
vn 0.9808 0.0000 0.1951
vn 0.8315 0.0000 0.5556
vn 0.5556 0.0000 0.8315
vn 0.1951 0.0000 0.9808
vn -0.1951 0.0000 0.9808
vn -0.5556 0.0000 0.8315
vn -0.8315 0.0000 0.5556
vn -0.9808 0.0000 0.1951
vn -0.9808 0.0000 -0.1951
vn -0.8315 0.0000 -0.5556
vn -0.5556 0.0000 -0.8315
vn -0.1951 0.0000 -0.9808
vn 0.0000 1.0000 -0.0000
vn 0.0000 -1.0000 -0.0000
usemtl None
s off
f 73//55 74//55 76//55 75//55
f 75//56 76//56 78//56 77//56
f 77//57 78//57 80//57 79//57
f 79//58 80//58 82//58 81//58
f 81//59 82//59 84//59 83//59
f 83//60 84//60 86//60 85//60
f 85//61 86//61 88//61 87//61
f 87//62 88//62 90//62 89//62
f 89//63 90//63 92//63 91//63
f 91//64 92//64 94//64 93//64
f 93//65 94//65 96//65 95//65
f 95//66 96//66 98//66 97//66
f 97//67 98//67 100//67 99//67
f 99//68 100//68 102//68 101//68
f 101//69 102//69 104//69 103//69
f 103//70 104//70 74//70 73//70
f 76//71 74//71 104//71 102//71 100//71 98//71 96//71 94//71 92//71 90//71 88//71 86//71 84//71 82//71 80//71 78//71
f 73//72 75//72 77//72 79//72 81//72 83//72 85//72 87//72 89//72 91//72 93//72 95//72 97//72 99//72 101//72 103//72
o Cube.001
v 70.000000 10.000000 -69.999992
v 70.000000 10.000000 50.000000
v -49.999977 10.000000 -70.000023
v 70.000031 20.000000 -69.999962
v 69.999954 20.000000 50.000042
v -49.999992 20.000000 -70.000000
v 70.000000 10.000000 -9.999999
v -49.999996 10.000000 -10.000018
v 69.999977 20.000000 -9.999958
v -50.000015 20.000000 -10.000016
v 10.000016 10.000000 -70.000015
v 9.999993 10.000000 49.999989
v 10.000016 20.000000 -69.999985
v 9.999969 20.000000 50.000000
v 9.999985 20.000000 -9.999995
v -50.000015 9.999998 59.999985
v -50.000031 19.999998 59.999977
v 9.999989 9.999998 59.999989
v 9.999964 19.999998 60.000000
v -60.000008 9.999983 49.999981
v -60.000027 19.999983 49.999973
v -59.999996 9.999983 -10.000022
v -60.000011 19.999983 -10.000020
v 70.000000 10.000000 39.500004
v 69.999962 20.000000 39.500046
v 9.999972 20.000000 39.500004
v -60.000004 9.999983 39.499977
v -60.000023 19.999983 39.499973
v -39.499977 10.000000 -70.000015
v -39.499989 20.000000 -69.999992
v -39.500015 20.000000 -10.000010
v -39.500011 9.999998 59.999989
v -39.500031 19.999998 59.999981
v -39.500023 20.000000 39.499985
v -50.000027 30.000000 49.999977
v -60.000027 29.999983 49.999973
v -39.500027 30.000000 49.999985
v -50.000023 30.000000 39.499977
v -50.000015 30.000000 -10.000016
v 9.999972 30.000000 39.500004
v 9.999969 30.000000 50.000000
v -39.500031 29.999998 59.999981
v -50.000031 29.999998 59.999977
v 9.999964 29.999998 60.000000
v -60.000023 29.999983 39.499973
v -60.000011 29.999983 -10.000020
v -39.500023 30.000000 39.499985
v -39.500015 30.000000 -10.000010
vn -1.0000 0.0000 -0.0000
vn 1.0000 0.0000 0.0000
vn 0.0000 0.0000 -1.0000
vn 0.0000 1.0000 0.0000
vn -0.0000 -0.0000 1.0000
vn -0.7071 -0.0000 0.7071
vn 0.0000 -1.0000 0.0000
usemtl Material
s off
f 132//73 125//73 140//73 149//73
f 128//74 129//74 109//74 106//74
f 112//73 114//73 110//73 107//73
f 134//75 133//75 107//75 110//75
f 114//75 112//75 126//75 127//75
f 105//74 108//74 113//74 111//74
f 134//76 110//76 114//76 135//76
f 108//76 117//76 119//76 113//76
f 108//75 105//75 115//75 117//75
f 106//77 109//77 118//77 116//77
f 129//76 130//76 118//76 109//76
f 136//77 137//77 121//77 120//77
f 123//74 118//74 145//74 148//74
f 118//74 130//74 144//74 145//74
f 116//74 118//74 123//74 122//74
f 131//73 132//73 127//73 126//73
f 121//78 125//78 124//78 120//78
f 138//74 135//74 152//74 151//74
f 127//73 132//73 149//73 150//73
f 124//73 125//73 132//73 131//73
f 113//76 119//76 130//76 129//76
f 111//74 113//74 129//74 128//74
f 121//77 137//77 146//77 147//77
f 119//76 135//76 138//76 130//76
f 135//75 114//75 143//75 152//75
f 122//77 123//77 137//77 136//77
f 117//76 134//76 135//76 119//76
f 117//75 115//75 133//75 134//75
f 125//78 121//78 147//78 140//78
f 151//76 142//76 139//76 141//76
f 141//76 139//76 147//76 146//76
f 140//76 147//76 139//76
f 142//76 143//76 150//76 149//76
f 139//76 142//76 149//76 140//76
f 152//76 143//76 142//76 151//76
f 145//76 141//76 146//76 148//76
f 144//76 151//76 141//76 145//76
f 137//77 123//77 148//77 146//77
f 114//75 127//75 150//75 143//75
f 130//75 138//75 151//75 144//75
f 116//79 122//79 136//79 120//79 124//79
f 111//79 112//79 107//79 133//79 115//79 105//79
f 128//79 131//79 126//79 112//79 111//79
f 106//79 116//79 124//79 131//79 128//79
o Cube
v 70.000000 0.000000 -69.999992
v 70.000000 0.000000 70.000000
v -69.999977 0.000000 -70.000023
v 70.000031 10.000000 -69.999962
v 69.999954 10.000000 70.000038
v -69.999992 10.000000 -70.000000
v -49.999981 0.000000 -70.000015
v -50.000004 0.000000 69.999985
v -49.999996 10.000000 -69.999992
v -50.000031 10.000000 69.999985
v 70.000000 0.000000 50.000000
v -70.000000 0.000000 49.999985
v 69.999969 10.000000 50.000038
v -70.000015 10.000000 49.999981
v -50.000027 10.000000 49.999989
v -50.000000 0.000000 49.999989
vn 0.0000 1.0000 0.0000
vn 1.0000 0.0000 0.0000
vn 0.0000 -1.0000 0.0000
vn -1.0000 -0.0000 -0.0000
vn 0.0000 0.0000 -1.0000
vn -0.0000 -0.0000 1.0000
vn -0.7071 -0.0000 0.7071
usemtl Material
s off
f 167//80 166//80 162//80
f 163//81 165//81 157//81 154//81
f 164//82 168//82 160//82
f 164//83 166//83 158//83 155//83
f 161//84 159//84 155//84 158//84
f 156//84 153//84 159//84 161//84
f 154//85 157//85 162//85 160//85
f 165//80 167//80 162//80 157//80
f 163//82 154//82 160//82 168//82
f 153//82 163//82 168//82 159//82
f 164//86 160//86 162//86 166//86
f 153//81 156//81 165//81 163//81
f 161//80 158//80 166//80 167//80
f 159//82 168//82 164//82 155//82
f 156//80 161//80 167//80 165//80
